<svg width="186" height="32" viewBox="0 0 186 32" fill="none" xmlns="http://www.w3.org/2000/svg">
<g clip-path="url(#clip0_1_14)">
<path d="M14.6922 7.93723L22.41 0L26.2421 5.36299C26.2421 5.36299 20.5695 5.43125 19.5018 5.6287C18.4341 5.82616 15.1773 7.56913 14.6946 7.93479L14.6922 7.93723Z" fill="#198342"/>
<path d="M9.65094 11.1404C9.65094 11.1404 24.8453 8.76605 34.467 12.3544C34.467 12.3544 29.5428 7.30098 29.3453 6.44534C29.3453 6.44534 18.7656 5.6994 9.64851 11.1404H9.65094Z" fill="#198342"/>
<path d="M6.83781 20.628C6.83781 20.628 17.2493 13.2563 34.8058 15.6478C34.8058 15.6478 31.1931 13.7293 21.8249 11.9912C21.313 11.8961 20.7865 11.8961 20.2745 11.9912C18.3585 12.3471 13.4099 13.3124 11.5231 14.0705C11.35 14.1412 11.2013 14.2558 11.0843 14.4021C10.431 15.2382 8.06643 18.3146 6.83781 20.628Z" fill="#198342"/>
<path d="M-2.51781e-07 26.3957C-0.0853206 26.4176 4.93151 22.2759 5.87979 22.1199C8.98301 21.608 13.0784 17.9343 36.5488 16.4278L44.369 25.4937C44.369 25.4937 31.1029 18.6023 -2.51781e-07 26.3957Z" fill="#198342"/>
<path d="M18.8436 25.9959L18.2561 27.4683L30.3838 31.6782L27.4707 25.3206C27.4707 25.3206 25.3523 26.381 18.846 25.9983L18.8436 25.9959Z" fill="#198342"/>
<path d="M28.9407 32H15.46C15.46 32 16.7252 30.3521 17.3444 27.9388L28.9407 32Z" fill="#198342"/>
</g>
<path d="M185.497 15.23H183.445L180.013 10.034V15.23H177.961V6.806H180.013L183.445 12.026V6.806H185.497V15.23Z" fill="black"/>
<path d="M172.512 15.314C171.72 15.314 170.992 15.13 170.328 14.762C169.672 14.394 169.148 13.882 168.756 13.226C168.372 12.562 168.18 11.818 168.18 10.994C168.18 10.17 168.372 9.42999 168.756 8.77399C169.148 8.11799 169.672 7.60599 170.328 7.23799C170.992 6.86999 171.72 6.68599 172.512 6.68599C173.304 6.68599 174.028 6.86999 174.684 7.23799C175.348 7.60599 175.868 8.11799 176.244 8.77399C176.628 9.42999 176.82 10.17 176.82 10.994C176.82 11.818 176.628 12.562 176.244 13.226C175.86 13.882 175.34 14.394 174.684 14.762C174.028 15.13 173.304 15.314 172.512 15.314ZM172.512 13.442C173.184 13.442 173.72 13.218 174.12 12.77C174.528 12.322 174.732 11.73 174.732 10.994C174.732 10.25 174.528 9.65799 174.12 9.21799C173.72 8.76999 173.184 8.54599 172.512 8.54599C171.832 8.54599 171.288 8.76599 170.88 9.20599C170.48 9.64599 170.28 10.242 170.28 10.994C170.28 11.738 170.48 12.334 170.88 12.782C171.288 13.222 171.832 13.442 172.512 13.442Z" fill="black"/>
<path d="M167.04 15.23H164.988L161.556 10.034V15.23H159.504V6.806H161.556L164.988 12.026V6.806H167.04V15.23Z" fill="black"/>
<path d="M155.901 13.742H152.757L152.253 15.23H150.105L153.153 6.806H155.529L158.577 15.23H156.405L155.901 13.742ZM155.373 12.158L154.329 9.074L153.297 12.158H155.373Z" fill="black"/>
<path d="M147.846 10.91C148.334 11.014 148.726 11.258 149.022 11.642C149.318 12.018 149.466 12.45 149.466 12.938C149.466 13.642 149.218 14.202 148.722 14.618C148.234 15.026 147.55 15.23 146.67 15.23H142.746V6.806H146.538C147.394 6.806 148.062 7.002 148.542 7.394C149.03 7.786 149.274 8.318 149.274 8.99C149.274 9.486 149.142 9.898 148.878 10.226C148.622 10.554 148.278 10.782 147.846 10.91ZM144.798 10.214H146.142C146.478 10.214 146.734 10.142 146.91 9.998C147.094 9.846 147.186 9.626 147.186 9.338C147.186 9.05 147.094 8.83 146.91 8.678C146.734 8.526 146.478 8.45 146.142 8.45H144.798V10.214ZM146.31 13.574C146.654 13.574 146.918 13.498 147.102 13.346C147.294 13.186 147.39 12.958 147.39 12.662C147.39 12.366 147.29 12.134 147.09 11.966C146.898 11.798 146.63 11.714 146.286 11.714H144.798V13.574H146.31Z" fill="black"/>
<path d="M138.306 8.45V10.154H141.054V11.738H138.306V13.586H141.414V15.23H136.254V6.806H141.414V8.45H138.306Z" fill="black"/>
<path d="M132.588 13.646H135.276V15.23H130.536V6.806H132.588V13.646Z" fill="black"/>
<path d="M126.914 6.806V8.45H123.482V10.226H126.05V11.822H123.482V15.23H121.43V6.806H126.914Z" fill="black"/>
<path d="M115.98 15.314C115.188 15.314 114.46 15.13 113.796 14.762C113.14 14.394 112.616 13.882 112.224 13.226C111.84 12.562 111.648 11.818 111.648 10.994C111.648 10.17 111.84 9.42999 112.224 8.77399C112.616 8.11799 113.14 7.60599 113.796 7.23799C114.46 6.86999 115.188 6.68599 115.98 6.68599C116.772 6.68599 117.496 6.86999 118.152 7.23799C118.816 7.60599 119.336 8.11799 119.712 8.77399C120.096 9.42999 120.288 10.17 120.288 10.994C120.288 11.818 120.096 12.562 119.712 13.226C119.328 13.882 118.808 14.394 118.152 14.762C117.496 15.13 116.772 15.314 115.98 15.314ZM115.98 13.442C116.652 13.442 117.188 13.218 117.588 12.77C117.996 12.322 118.2 11.73 118.2 10.994C118.2 10.25 117.996 9.65799 117.588 9.21799C117.188 8.76999 116.652 8.54599 115.98 8.54599C115.3 8.54599 114.756 8.76599 114.348 9.20599C113.948 9.64599 113.748 10.242 113.748 10.994C113.748 11.738 113.948 12.334 114.348 12.782C114.756 13.222 115.3 13.442 115.98 13.442Z" fill="black"/>
<path d="M108.627 6.806L105.711 12.446V15.23H103.659V12.446L100.743 6.806H103.071L104.703 10.334L106.323 6.806H108.627Z" fill="black"/>
<path d="M97.0679 15.314C96.4519 15.314 95.8999 15.214 95.4119 15.014C94.9239 14.814 94.5319 14.518 94.2359 14.126C93.9479 13.734 93.7959 13.262 93.7799 12.71H95.9639C95.9959 13.022 96.1039 13.262 96.2879 13.43C96.4719 13.59 96.7119 13.67 97.0079 13.67C97.3119 13.67 97.5519 13.602 97.7279 13.466C97.9039 13.322 97.9919 13.126 97.9919 12.878C97.9919 12.67 97.9199 12.498 97.7759 12.362C97.6399 12.226 97.4679 12.114 97.2599 12.026C97.0599 11.938 96.7719 11.838 96.3959 11.726C95.8519 11.558 95.4079 11.39 95.0639 11.222C94.7199 11.054 94.4239 10.806 94.1759 10.478C93.9279 10.15 93.8039 9.72199 93.8039 9.19399C93.8039 8.40999 94.0879 7.79799 94.6559 7.35799C95.2239 6.90999 95.9639 6.68599 96.8759 6.68599C97.8039 6.68599 98.5519 6.90999 99.1199 7.35799C99.6879 7.79799 99.9919 8.41399 100.032 9.20599H97.8119C97.7959 8.93399 97.6959 8.72199 97.5119 8.56999C97.3279 8.40999 97.0919 8.32999 96.8039 8.32999C96.5559 8.32999 96.3559 8.39799 96.2039 8.53399C96.0519 8.66199 95.9759 8.84999 95.9759 9.09799C95.9759 9.36999 96.1039 9.58199 96.3599 9.73399C96.6159 9.88599 97.0159 10.05 97.5599 10.226C98.1039 10.41 98.5439 10.586 98.8799 10.754C99.2239 10.922 99.5199 11.166 99.7679 11.486C100.016 11.806 100.14 12.218 100.14 12.722C100.14 13.202 100.016 13.638 99.7679 14.03C99.5279 14.422 99.1759 14.734 98.7119 14.966C98.2479 15.198 97.6999 15.314 97.0679 15.314Z" fill="black"/>
<path d="M89.6851 15.314C89.0691 15.314 88.5171 15.214 88.0291 15.014C87.5411 14.814 87.1491 14.518 86.8531 14.126C86.5651 13.734 86.4131 13.262 86.3971 12.71H88.5811C88.6131 13.022 88.7211 13.262 88.9051 13.43C89.0891 13.59 89.3291 13.67 89.6251 13.67C89.9291 13.67 90.1691 13.602 90.3451 13.466C90.5211 13.322 90.6091 13.126 90.6091 12.878C90.6091 12.67 90.5371 12.498 90.3931 12.362C90.2571 12.226 90.0851 12.114 89.8771 12.026C89.6771 11.938 89.3891 11.838 89.0131 11.726C88.4691 11.558 88.0251 11.39 87.6811 11.222C87.3371 11.054 87.0411 10.806 86.7931 10.478C86.5451 10.15 86.4211 9.72199 86.4211 9.19399C86.4211 8.40999 86.7051 7.79799 87.2731 7.35799C87.8411 6.90999 88.5811 6.68599 89.4931 6.68599C90.4211 6.68599 91.1691 6.90999 91.7371 7.35799C92.3051 7.79799 92.6091 8.41399 92.6491 9.20599H90.4291C90.4131 8.93399 90.3131 8.72199 90.1291 8.56999C89.9451 8.40999 89.7091 8.32999 89.4211 8.32999C89.1731 8.32999 88.9731 8.39799 88.8211 8.53399C88.6691 8.66199 88.5931 8.84999 88.5931 9.09799C88.5931 9.36999 88.7211 9.58199 88.9771 9.73399C89.2331 9.88599 89.6331 10.05 90.1771 10.226C90.7211 10.41 91.1611 10.586 91.4971 10.754C91.8411 10.922 92.1371 11.166 92.3851 11.486C92.6331 11.806 92.7571 12.218 92.7571 12.722C92.7571 13.202 92.6331 13.638 92.3851 14.03C92.1451 14.422 91.7931 14.734 91.3291 14.966C90.8651 15.198 90.3171 15.314 89.6851 15.314Z" fill="black"/>
<path d="M83.0334 13.742H79.8894L79.3854 15.23H77.2374L80.2854 6.806H82.6614L85.7094 15.23H83.5374L83.0334 13.742ZM82.5054 12.158L81.4614 9.074L80.4294 12.158H82.5054Z" fill="black"/>
<path d="M74.9793 10.91C75.4673 11.014 75.8593 11.258 76.1553 11.642C76.4513 12.018 76.5993 12.45 76.5993 12.938C76.5993 13.642 76.3513 14.202 75.8553 14.618C75.3673 15.026 74.6833 15.23 73.8033 15.23H69.8793V6.806H73.6713C74.5273 6.806 75.1953 7.002 75.6753 7.394C76.1633 7.786 76.4073 8.318 76.4073 8.99C76.4073 9.486 76.2753 9.898 76.0113 10.226C75.7553 10.554 75.4113 10.782 74.9793 10.91ZM71.9313 10.214H73.2753C73.6113 10.214 73.8673 10.142 74.0433 9.998C74.2273 9.846 74.3193 9.626 74.3193 9.338C74.3193 9.05 74.2273 8.83 74.0433 8.678C73.8673 8.526 73.6113 8.45 73.2753 8.45H71.9313V10.214ZM73.4433 13.574C73.7873 13.574 74.0513 13.498 74.2353 13.346C74.4273 13.186 74.5233 12.958 74.5233 12.662C74.5233 12.366 74.4233 12.134 74.2233 11.966C74.0313 11.798 73.7633 11.714 73.4193 11.714H71.9313V13.574H73.4433Z" fill="black"/>
<path d="M68.4036 6.806V15.23H66.3516V10.178L64.4676 15.23H62.8116L60.9156 10.166V15.23H58.8636V6.806H61.2876L63.6516 12.638L65.9916 6.806H68.4036Z" fill="black"/>
<path d="M54.4234 8.45V10.154H57.1714V11.738H54.4234V13.586H57.5314V15.23H52.3714V6.806H57.5314V8.45H54.4234Z" fill="black"/>
<path d="M144.694 20.8481C144.66 20.5602 144.522 20.3367 144.279 20.1776C144.037 20.0185 143.739 19.939 143.387 19.939C143.129 19.939 142.904 19.9807 142.711 20.064C142.52 20.1473 142.37 20.2619 142.262 20.4077C142.156 20.5536 142.103 20.7193 142.103 20.9049C142.103 21.0602 142.14 21.1937 142.214 21.3055C142.29 21.4153 142.386 21.5072 142.504 21.581C142.621 21.653 142.744 21.7127 142.873 21.76C143.002 21.8055 143.12 21.8424 143.228 21.8708L143.819 22.0299C143.97 22.0697 144.139 22.1246 144.325 22.1947C144.512 22.2648 144.691 22.3604 144.862 22.4816C145.034 22.6009 145.176 22.7543 145.288 22.9418C145.399 23.1293 145.455 23.3595 145.455 23.6322C145.455 23.9466 145.373 24.2307 145.208 24.4844C145.045 24.7382 144.807 24.9399 144.492 25.0896C144.18 25.2392 143.8 25.314 143.353 25.314C142.936 25.314 142.576 25.2468 142.271 25.1123C141.968 24.9778 141.729 24.7903 141.555 24.5498C141.382 24.3093 141.285 24.0299 141.262 23.7117H141.989C142.008 23.9314 142.082 24.1132 142.211 24.2572C142.342 24.3992 142.506 24.5053 142.705 24.5754C142.906 24.6435 143.122 24.6776 143.353 24.6776C143.622 24.6776 143.863 24.6341 144.077 24.5469C144.291 24.4579 144.461 24.3348 144.586 24.1776C144.711 24.0185 144.773 23.8329 144.773 23.6208C144.773 23.4276 144.719 23.2704 144.612 23.1492C144.504 23.028 144.362 22.9295 144.185 22.8538C144.009 22.778 143.819 22.7117 143.614 22.6549L142.898 22.4504C142.444 22.3197 142.084 22.1331 141.819 21.8907C141.554 21.6483 141.421 21.331 141.421 20.939C141.421 20.6132 141.509 20.3291 141.685 20.0867C141.863 19.8424 142.102 19.653 142.401 19.5185C142.702 19.3822 143.039 19.314 143.41 19.314C143.785 19.314 144.118 19.3812 144.41 19.5157C144.701 19.6483 144.933 19.8301 145.103 20.0612C145.275 20.2922 145.366 20.5545 145.376 20.8481H144.694Z" fill="black"/>
<path d="M136.731 25.2117V19.3936H140.242V20.0186H137.435V21.9845H140.06V22.6095H137.435V24.5867H140.288V25.2117H136.731Z" fill="black"/>
<path d="M131.28 20.0186V19.3936H135.643V20.0186H133.814V25.2117H133.109V20.0186H131.28Z" fill="black"/>
<path d="M127.11 25.2117H126.371L128.508 19.3936H129.235L131.371 25.2117H130.633L128.894 20.314H128.849L127.11 25.2117ZM127.383 22.939H130.36V23.564H127.383V22.939Z" fill="black"/>
<path d="M121.754 25.2117V19.3936H123.72C124.175 19.3936 124.548 19.4712 124.839 19.6265C125.131 19.7799 125.347 19.9911 125.487 20.26C125.627 20.529 125.697 20.8348 125.697 21.1776C125.697 21.5204 125.627 21.8244 125.487 22.0896C125.347 22.3547 125.132 22.5631 124.842 22.7146C124.553 22.8642 124.182 22.939 123.732 22.939H122.141V22.3026H123.709C124.019 22.3026 124.269 22.2572 124.459 22.1663C124.65 22.0754 124.788 21.9466 124.874 21.7799C124.961 21.6114 125.004 21.4106 125.004 21.1776C125.004 20.9447 124.961 20.7411 124.874 20.5669C124.786 20.3926 124.647 20.2581 124.456 20.1634C124.265 20.0669 124.012 20.0186 123.697 20.0186H122.459V25.2117H121.754ZM124.493 22.5981L125.925 25.2117H125.107L123.697 22.5981H124.493Z" fill="black"/>
<path d="M120.342 19.3936V25.2117H119.637V19.3936H120.342Z" fill="black"/>
<path d="M112.52 19.3936H113.361L115.338 24.2231H115.406L117.384 19.3936H118.224V25.2117H117.565V20.7913H117.509L115.69 25.2117H115.054L113.236 20.7913H113.179V25.2117H112.52V19.3936Z" fill="black"/>
<path d="M107.739 25.2117V19.3936H111.25V20.0186H108.443V21.9845H111.068V22.6095H108.443V24.5867H111.295V25.2117H107.739Z" fill="black"/>
<path d="M100.286 25.2117V19.3936H102.32C102.725 19.3936 103.059 19.4636 103.322 19.6038C103.586 19.742 103.782 19.9286 103.911 20.1634C104.039 20.3964 104.104 20.6549 104.104 20.939C104.104 21.189 104.059 21.3954 103.97 21.5583C103.883 21.7212 103.768 21.85 103.624 21.9447C103.482 22.0394 103.327 22.1095 103.161 22.1549V22.2117C103.339 22.2231 103.518 22.2856 103.697 22.3992C103.877 22.5129 104.028 22.6758 104.149 22.8879C104.27 23.1 104.331 23.3595 104.331 23.6663C104.331 23.9579 104.265 24.2203 104.132 24.4532C104 24.6862 103.79 24.8708 103.504 25.0072C103.218 25.1436 102.846 25.2117 102.388 25.2117H100.286ZM100.99 24.5867H102.388C102.848 24.5867 103.175 24.4977 103.368 24.3197C103.563 24.1398 103.661 23.922 103.661 23.6663C103.661 23.4693 103.61 23.2875 103.51 23.1208C103.41 22.9523 103.267 22.8178 103.081 22.7174C102.895 22.6151 102.676 22.564 102.422 22.564H100.99V24.5867ZM100.99 21.9504H102.297C102.509 21.9504 102.7 21.9087 102.871 21.8254C103.043 21.742 103.179 21.6246 103.28 21.4731C103.382 21.3216 103.433 21.1436 103.433 20.939C103.433 20.6833 103.344 20.4665 103.166 20.2884C102.988 20.1085 102.706 20.0186 102.32 20.0186H100.99V21.9504Z" fill="black"/>
<path d="M95.1179 25.2117H94.3793L96.5156 19.3936H97.2429L99.3793 25.2117H98.6406L96.902 20.314H96.8565L95.1179 25.2117ZM95.3906 22.939H98.3679V23.564H95.3906V22.939Z" fill="black"/>
<path d="M89.7621 25.2117V19.3936H91.728C92.1825 19.3936 92.5556 19.4712 92.8473 19.6265C93.139 19.7799 93.3549 19.9911 93.495 20.26C93.6352 20.529 93.7053 20.8348 93.7053 21.1776C93.7053 21.5204 93.6352 21.8244 93.495 22.0896C93.3549 22.3547 93.1399 22.5631 92.8501 22.7146C92.5604 22.8642 92.1901 22.939 91.7393 22.939H90.1484V22.3026H91.7166C92.0272 22.3026 92.2772 22.2572 92.4666 22.1663C92.6579 22.0754 92.7962 21.9466 92.8814 21.7799C92.9685 21.6114 93.0121 21.4106 93.0121 21.1776C93.0121 20.9447 92.9685 20.7411 92.8814 20.5669C92.7943 20.3926 92.6551 20.2581 92.4638 20.1634C92.2725 20.0669 92.0196 20.0186 91.7053 20.0186H90.4666V25.2117H89.7621ZM92.5007 22.5981L93.9325 25.2117H93.1143L91.7053 22.5981H92.5007Z" fill="black"/>
<path d="M84.5945 25.2117H83.8558L85.9922 19.3936H86.7195L88.8558 25.2117H88.1172L86.3785 20.314H86.3331L84.5945 25.2117ZM84.8672 22.939H87.8445V23.564H84.8672V22.939Z" fill="black"/>
<path d="M78.1513 25.2117H76.3558V19.3936H78.2308C78.7952 19.3936 79.2782 19.51 79.6797 19.743C80.0812 19.974 80.389 20.3064 80.603 20.7401C80.817 21.172 80.924 21.689 80.924 22.2913C80.924 22.8973 80.816 23.4191 80.6001 23.8566C80.3842 24.2922 80.0698 24.6275 79.657 24.8623C79.2441 25.0953 78.7422 25.2117 78.1513 25.2117ZM77.0604 24.5867H78.1058C78.5869 24.5867 78.9856 24.4939 79.3018 24.3083C79.6181 24.1227 79.8539 23.8585 80.0092 23.5157C80.1645 23.1729 80.2422 22.7648 80.2422 22.2913C80.2422 21.8216 80.1655 21.4172 80.0121 21.0782C79.8587 20.7373 79.6295 20.4759 79.3246 20.2941C79.0196 20.1104 78.6399 20.0186 78.1854 20.0186H77.0604V24.5867Z" fill="black"/>
<path d="M71.5746 25.2117V19.3936H75.0859V20.0186H72.2791V21.9845H74.9041V22.6095H72.2791V24.5867H75.1314V25.2117H71.5746Z" fill="black"/>
<path d="M66.1236 20.0186V19.3936H70.4872V20.0186H68.6577V25.2117H67.9531V20.0186H66.1236Z" fill="black"/>
<path d="M65.0291 19.3936V25.2117H64.3246V19.3936H65.0291Z" fill="black"/>
<path d="M62.9148 19.3936V25.2117H62.233L59.0625 20.6436H59.0057V25.2117H58.3011V19.3936H58.983L62.1648 23.9731H62.2216V19.3936H62.9148Z" fill="black"/>
<path d="M56.1896 19.3936H56.8942V23.2458C56.8942 23.6436 56.8004 23.9987 56.6129 24.3112C56.4273 24.6218 56.165 24.867 55.826 25.047C55.487 25.225 55.0892 25.314 54.6328 25.314C54.1764 25.314 53.7786 25.225 53.4396 25.047C53.1006 24.867 52.8374 24.6218 52.6499 24.3112C52.4642 23.9987 52.3714 23.6436 52.3714 23.2458V19.3936H53.076V23.189C53.076 23.4731 53.1385 23.7259 53.2635 23.9475C53.3885 24.1672 53.5665 24.3405 53.7976 24.4674C54.0305 24.5924 54.3089 24.6549 54.6328 24.6549C54.9567 24.6549 55.2351 24.5924 55.468 24.4674C55.701 24.3405 55.879 24.1672 56.0021 23.9475C56.1271 23.7259 56.1896 23.4731 56.1896 23.189V19.3936Z" fill="black"/>
<defs>
<clipPath id="clip0_1_14">
<rect width="44.3714" height="32" fill="white"/>
</clipPath>
</defs>
</svg>
